<svg width="78" height="78" viewBox="0 0 78 78" fill="none" xmlns="http://www.w3.org/2000/svg">
<path d="M70 39C70 56.1208 56.1208 70 39 70C21.8792 70 8 56.1208 8 39C8 21.8792 21.8792 8 39 8C56.1208 8 70 21.8792 70 39Z" fill="#D9D9D9"/>
<path fill-rule="evenodd" clip-rule="evenodd" d="M24.7487 21H52.2503C54.8627 21 57 23.1364 57 25.7487V53.2503C57 55.8627 54.8627 58 52.2503 58H24.7487C22.1364 58 20 55.8627 20 53.2503V25.7487C20 23.1364 22.1364 21 24.7487 21ZM46.9524 25.1101C46.0364 25.1101 45.2866 25.8599 45.2866 26.7758V30.7631C45.2866 31.679 46.0363 32.4288 46.9524 32.4288H51.1347C52.0507 32.4288 52.8005 31.6791 52.8005 30.7631V26.7758C52.8005 25.8599 52.0508 25.1101 51.1347 25.1101H46.9524ZM52.8176 36.6464H49.5611C49.8691 37.6527 50.0354 38.7177 50.0354 39.8216C50.0354 45.9759 44.8864 50.9649 38.5343 50.9649C32.1831 50.9649 27.0341 45.9759 27.0341 39.8216C27.0341 38.7178 27.2003 37.6528 27.5084 36.6464H24.111V52.2757C24.111 53.0851 24.7722 53.7472 25.5816 53.7472H51.347C52.1555 53.7472 52.8177 53.085 52.8177 52.2757V36.6464H52.8176ZM38.5344 32.2193C34.4306 32.2193 31.1036 35.4432 31.1036 39.4196C31.1036 43.3961 34.4306 46.62 38.5344 46.62C42.639 46.62 45.966 43.3961 45.966 39.4196C45.966 35.4432 42.639 32.2193 38.5344 32.2193Z" fill="black"/>
</svg>
