<svg width="62" height="62" viewBox="0 0 62 62" fill="none" xmlns="http://www.w3.org/2000/svg">
<g clip-path="url(#clip0_112_997)">
<circle cx="31" cy="31" r="31" fill="#D9D9D9"/>
<path fill-rule="evenodd" clip-rule="evenodd" d="M24.58 47.9996C39.674 47.9996 47.93 35.6867 47.93 25.0103C47.93 24.6598 47.93 24.312 47.906 23.9654C49.512 22.8233 50.898 21.4053 52 19.7828C50.504 20.4365 48.914 20.8653 47.288 21.0543C49 20.0441 50.282 18.4572 50.896 16.5846C49.284 17.5258 47.522 18.19 45.684 18.5465C42.576 15.2935 37.378 15.1359 34.072 18.1959C31.942 20.1689 31.036 23.1106 31.698 25.9166C25.1 25.5897 18.952 22.5219 14.784 17.4752C12.606 21.1672 13.72 25.8886 17.326 28.2594C16.02 28.2219 14.742 27.8758 13.6 27.2496V27.3521C13.602 31.1978 16.356 34.5091 20.184 35.2711C18.976 35.596 17.708 35.6431 16.48 35.4088C17.554 38.7011 20.636 40.9561 24.146 41.0211C21.24 43.2698 17.65 44.4908 13.954 44.4869C13.302 44.4849 12.65 44.4475 12 44.3707C15.754 46.7415 20.12 47.9996 24.58 47.9937" fill="black"/>
</g>
<defs>
<clipPath id="clip0_112_997">
<rect width="62" height="62" fill="white"/>
</clipPath>
</defs>
</svg>
