<svg width="62" height="62" viewBox="0 0 62 62" fill="none" xmlns="http://www.w3.org/2000/svg">
<circle cx="31" cy="31" r="31" fill="#D9D9D9"/>
<g clip-path="url(#clip0_112_991)">
<path d="M13.28 11H16.9543L19.321 18.1308H19.5499L21.8071 11H25.5129L21.2671 21.4374V28.8417H17.6201V21.7695L13.28 11ZM25.8988 18.6835C25.8988 17.6366 26.3381 16.8046 27.2174 16.1835C28.0955 15.5624 29.2759 15.2519 30.759 15.2519C32.1096 15.2519 33.2156 15.58 34.0773 16.2343C34.9411 16.8885 35.3719 17.7303 35.3719 18.7617V25.744C35.3719 26.9003 34.9481 27.8085 34.1033 28.4667C33.2575 29.1249 32.0925 29.455 30.6109 29.455C29.1831 29.455 28.0411 29.1151 27.1839 28.4355C26.3277 27.7558 25.8988 26.8417 25.8988 25.6913V18.6835ZM29.2575 25.9451C29.2575 26.3182 29.3727 26.6034 29.6056 26.8085C29.838 27.0116 30.1696 27.1112 30.601 27.1112C31.0433 27.1112 31.3949 27.0096 31.6547 26.8026C31.9151 26.5937 32.0458 26.3084 32.0458 25.9451V18.5819C32.0458 18.287 31.9121 18.0487 31.6468 17.8671C31.3816 17.6854 31.0329 17.5936 30.601 17.5936C30.2035 17.5936 29.8794 17.6854 29.631 17.8671C29.3817 18.0487 29.2575 18.287 29.2575 18.5819V25.9451ZM47.3086 15.4687V28.9882H44.0401V27.496C43.4367 28.0468 42.8104 28.4647 42.1581 28.7538C41.5068 29.039 40.8735 29.1835 40.261 29.1835C39.5051 29.1835 38.9345 28.9823 38.5515 28.58C38.1685 28.1775 37.977 27.5741 37.977 26.7694V15.4687H41.2464V25.8319C41.2464 26.1542 41.3153 26.3847 41.4519 26.5292C41.5896 26.6718 41.811 26.744 42.1172 26.744C42.3585 26.744 42.6628 26.6483 43.0286 26.4589C43.3967 26.2694 43.7337 26.0272 44.0399 25.7323V15.4687H47.3086ZM44.2456 39.3963C44.0851 39.2224 43.8297 39.1326 43.4786 39.1326C43.1117 39.1326 42.8484 39.2224 42.6888 39.3963C42.5293 39.572 42.4495 39.863 42.4495 40.2693V41.1111H44.486V40.2693C44.486 39.863 44.4062 39.572 44.2456 39.3963ZM34.586 45.7341C34.7615 45.8044 34.9471 45.8376 35.1425 45.8376C35.4258 45.8376 35.6312 45.7711 35.7649 45.6345C35.8984 45.4997 35.9643 45.2751 35.9643 44.9665V40.0993C35.9643 39.7713 35.8825 39.5232 35.719 39.3533C35.5544 39.1833 35.3142 39.0993 35.0029 39.0993C34.8383 39.0993 34.6758 39.1306 34.5151 39.1931C34.3546 39.2575 34.196 39.3572 34.0394 39.49V45.3923C34.227 45.5524 34.4094 45.6657 34.586 45.7341ZM49.7473 35.4295C49.7473 33.0858 47.2886 31.1854 44.2586 31.1854C39.936 31.0427 35.5127 30.9803 31 30.988C26.4888 30.9802 22.0654 31.0427 17.7413 31.1854C14.7128 31.1854 12.2543 33.0857 12.2543 35.4295C12.0722 37.283 11.9934 39.1384 12.0004 40.9939C11.9935 42.8493 12.0722 44.7047 12.2543 46.5602C12.2543 48.902 14.7128 50.8023 17.7413 50.8023C22.0654 50.943 26.4888 51.0055 31 50.9996C35.5127 51.0055 39.936 50.943 44.2586 50.8023C47.2886 50.8023 49.7473 48.902 49.7473 46.5602C49.9288 44.7047 50.0074 42.8493 49.9994 40.9939C50.0074 39.1384 49.9288 37.283 49.7473 35.4295ZM20.2272 47.2399V47.3806H17.631V47.2399V36.1385H14.9451V35.9999V34.2304V34.0918H22.9136V34.2304V35.9999V36.1385H20.2272V47.2399ZM29.4624 37.6795V47.2399V47.3806H27.1575V47.2399V46.3084C26.7316 46.7047 26.2902 47.0036 25.831 47.2107C25.3707 47.4157 24.9249 47.5192 24.492 47.5192C23.9594 47.5192 23.5579 47.3747 23.2876 47.0875C23.0168 46.7985 22.8817 46.3649 22.8817 45.7868V45.6461V37.6795V37.5408H25.1877V37.6795V44.9762C25.1877 45.2048 25.2355 45.3727 25.3317 45.4743C25.429 45.5778 25.5856 45.6286 25.8015 45.6286C25.9715 45.6286 26.1855 45.5602 26.4448 45.4255C26.7031 45.2887 26.9405 45.1149 27.1575 44.904V37.6795V37.5408H29.4624V37.6795ZM38.3371 39.99V45.2302V45.3708C38.3371 46.0603 38.1566 46.5876 37.7957 46.9548C37.4345 47.3181 36.9118 47.5016 36.2297 47.5016C35.7788 47.5016 35.3781 47.4313 35.0248 47.2907C34.6708 47.1481 34.3427 46.9293 34.0395 46.6344V47.2399V47.3805H31.7126V47.2399V34.2303V34.0917H34.0395V34.2303V38.324C34.3507 38.0271 34.6798 37.8025 35.0289 37.6502C35.379 37.4959 35.7332 37.4178 36.0901 37.4178C36.8181 37.4178 37.3767 37.6248 37.7606 38.0389C38.1446 38.4529 38.3371 39.0564 38.3371 39.8495V39.99ZM46.8587 40.2869V42.617V42.7577H42.4495V44.447C42.4495 44.9568 42.5252 45.3103 42.6768 45.5076C42.8294 45.7049 43.0887 45.8045 43.4557 45.8045C43.8378 45.8045 44.1061 45.7205 44.2586 45.5525C44.4102 45.3865 44.486 45.0173 44.486 44.447V43.9138V43.7732H46.8588V43.9138V44.5017V44.6423C46.8588 45.6364 46.5706 46.3845 45.9922 46.8884C45.4146 47.3923 44.5518 47.6423 43.4039 47.6423C42.3716 47.6423 41.5598 47.3747 40.9663 46.8416C40.3739 46.3084 40.0767 45.574 40.0767 44.6423V44.5017V40.2869V40.1483C40.0767 39.3065 40.4027 38.6209 41.0531 38.0896C41.7044 37.5603 42.5472 37.2947 43.5785 37.2947C44.6337 37.2947 45.4435 37.5408 46.0102 38.031C46.5747 38.5213 46.8588 39.2283 46.8588 40.1483L46.8587 40.2869Z" fill="black"/>
</g>
<defs>
<clipPath id="clip0_112_991">
<rect width="38" height="40" fill="white" transform="translate(12 11)"/>
</clipPath>
</defs>
</svg>
